HIERARCHY
ROOT hip
{
	OFFSET	0.00  0.00  0.00 
	CHANNELS 6 Xposition Yposition Zposition Xrotation Zrotation Yrotation
	JOINT abdomen
	{
		OFFSET	0.000000 0.000000 0.000000
		CHANNELS 3 Xrotation Zrotation Yrotation
		JOINT chest
		{
			OFFSET	0.000000 3.594621 -1.348285
			CHANNELS 3 Xrotation Zrotation Yrotation
			JOINT neckDummy
			{
				OFFSET	0.000000 5.957268 0.562241
				CHANNELS 3 Xrotation Yrotation Zrotation
				JOINT neck
				{
					OFFSET	0.000000 1.633514 -0.281372
					CHANNELS 3 Xrotation Zrotation Yrotation
					JOINT head
					{
						OFFSET	0.000000 2.504897 0.379271
						CHANNELS 3 Xrotation Zrotation Yrotation
						JOINT figureHair
						{
							OFFSET	0.000000 3.366413 0.516199
							CHANNELS 3 Zrotation Yrotation Xrotation
							End Site
							{
								OFFSET 0.000000 -4.598319 0.000000
							}
						}
					}
				}
			}
			JOINT lCollar
			{
				OFFSET	0.429248 5.957268 0.562241
				CHANNELS 3 Yrotation Zrotation Xrotation
				JOINT lShldr
				{
					OFFSET	4.599657 0.007268 -0.237911
					CHANNELS 3 Zrotation Yrotation Xrotation
					JOINT lForeArm
					{
						OFFSET	7.559209 0.018319 0.089905
						CHANNELS 3 Yrotation Zrotation Xrotation
						JOINT lHand
						{
							OFFSET	7.905322 0.228950 0.029741
							CHANNELS 3 Zrotation Yrotation Xrotation
						}
					}
				}
			}
			JOINT rCollar
			{
				OFFSET	-0.429248 5.957268 0.562241
				CHANNELS 3 Yrotation Zrotation Xrotation
				JOINT rShldr
				{
					OFFSET	-4.599657 0.007268 -0.237911
					CHANNELS 3 Zrotation Yrotation Xrotation
					JOINT rForeArm
					{
						OFFSET	-7.559209 0.018319 0.089905
						CHANNELS 3 Yrotation Zrotation Xrotation
						JOINT rHand
						{
							OFFSET	-7.905322 0.228950 0.029741
							CHANNELS 3 Zrotation Yrotation Xrotation
						}
					}
				}
			}
		}
	}
	JOINT lThigh
	{
		OFFSET	3.223791 -4.584819 -1.312804
		CHANNELS 3 Xrotation Zrotation Yrotation
		JOINT lShin
		{
			OFFSET	-0.973567 -13.551907 0.845181
			CHANNELS 3 Xrotation Zrotation Yrotation
			JOINT lFoot
			{
				OFFSET	-0.467315 -12.331647 -0.223591
				CHANNELS 3 Xrotation Yrotation Zrotation
				End Site
				{
					OFFSET 0.000000 0.000000 7.416638
				}
			}
		}
	}
	JOINT rThigh
	{
		OFFSET	-3.223791 -4.584819 -1.312804
		CHANNELS 3 Xrotation Zrotation Yrotation
		JOINT rShin
		{
			OFFSET	0.973567 -13.551907 0.845181
			CHANNELS 3 Xrotation Zrotation Yrotation
			JOINT rFoot
			{
				OFFSET	0.467315 -12.331647 -0.223591
				CHANNELS 3 Xrotation Yrotation Zrotation
				End Site
				{
					OFFSET 0.000000 0.000000 7.416638
				}
			}
		}
	}
}
MOTION
Frames:     15
Frame Time: 0.041667
0.000000 30.096275 0.171947 0.000000 0.000000 178.988998 0.106530 0.004457 0.061662 -0.008575 -0.159635 0.219030 0.000000 0.000000 0.000000 -5.860930 -0.203273 -1.137570 -0.153267 0.088373 -1.718590 0.000000 0.000000 0.000000 1.732760 -5.474310 -0.257161 -38.167198 10.657000 23.044600 -19.709200 0.871596 0.230376 5.318310 -0.629361 0.430695 -2.231020 6.056270 -0.046595 38.595798 -7.320490 19.915899 19.235201 0.840816 0.259990 -5.782530 0.095553 0.181158 -5.187170 9.227860 0.478358 12.736700 -3.231600 -0.517874 -10.313200 2.182740 -0.752988 -8.624690 -11.054100 -0.330972 18.041500 3.417760 0.819594 -9.862190 0.391617 1.072330 
0.021755 30.084841 0.216559 0.000000 0.000000 178.995865 0.084058 -0.000064 0.052767 -0.020753 -0.149705 0.204157 0.000000 0.000000 0.000000 -5.841701 -0.187114 -1.048475 -0.139064 0.071824 -1.580693 0.000000 0.000000 0.000000 1.714115 -5.452587 -0.255498 -43.985935 11.185943 21.860706 -20.467224 -0.791672 0.190394 5.331595 -0.637818 0.409441 -2.211245 6.035337 -0.048472 44.244167 -7.763198 19.215477 19.863789 2.287041 0.238737 -5.790236 0.147123 0.178918 -5.233243 8.193453 0.430314 12.750057 -3.238816 -0.526124 -10.469655 2.378607 -0.741175 -8.592242 -9.919982 -0.259428 18.098972 3.417357 0.824901 -9.613138 -0.002994 1.046944 
0.061160 30.064129 0.297366 0.000000 0.000000 178.907562 0.054247 -0.007798 0.042961 -0.043690 -0.148050 0.199623 0.000000 0.000000 0.000000 -5.824214 -0.178460 -0.996057 -0.128896 0.050878 -1.505215 0.000000 0.000000 0.000000 1.650822 -5.391191 -0.272283 -51.259811 12.214912 20.438206 -21.549381 -2.762398 0.127778 5.288533 -0.705162 0.397632 -2.196726 6.034649 -0.050165 51.255814 -8.293573 18.347784 20.666998 4.042099 0.211717 -5.785188 0.232464 0.175420 -5.075573 6.856262 0.379265 12.455246 -3.244817 -0.506578 -10.929473 2.848557 -0.707018 -8.645271 -8.553219 -0.173977 18.434477 3.431600 0.855693 -9.364086 -0.397606 1.021558 
0.093656 30.047049 0.364005 0.000000 0.000000 178.881989 0.024807 -0.014380 0.032064 -0.062217 -0.139409 0.185902 0.000000 0.000000 0.000000 -5.801970 -0.161982 -0.903477 -0.113473 0.029573 -1.363995 0.000000 0.000000 0.000000 1.611831 -5.350428 -0.277278 -58.714443 13.031480 18.943176 -22.571352 -4.852301 0.071782 5.283006 -0.737443 0.375978 -2.175184 6.017313 -0.052327 58.475368 -8.852285 17.453192 21.478966 5.875644 0.184315 -5.789597 0.306319 0.172289 -5.053038 5.514388 0.321131 12.354335 -3.252918 -0.505834 -11.230019 3.184766 -0.684538 -8.639207 -7.119678 -0.083836 18.608116 3.436678 0.871655 -9.115034 -0.792217 0.996171 
0.084763 30.051723 0.345767 0.000000 0.000000 179.164383 0.003978 -0.013787 0.018326 -0.054823 -0.098490 0.130269 0.000000 0.000000 0.000000 -5.761741 -0.111291 -0.637126 -0.076080 0.011437 -0.935950 0.000000 0.000000 0.000000 1.700933 -5.420175 -0.223347 -65.334564 12.618714 17.437712 -23.062529 -7.043946 0.061153 5.462715 -0.590443 0.311075 -2.124342 5.922732 -0.056281 65.043457 -9.420347 16.633774 22.146299 7.669062 0.161374 -5.839139 0.307073 0.171677 -5.698528 4.459211 0.241657 13.227772 -3.269446 -0.597486 -10.679989 2.787390 -0.724523 -8.344585 -5.689291 0.008514 17.947468 3.395617 0.811170 -8.865982 -1.186829 0.970785 
0.000000 30.096275 0.171947 0.000000 0.000000 180.000000 0.000000 0.000000 0.000000 0.000000 0.000000 0.000000 0.000000 0.000000 0.000000 -5.690300 0.000000 -0.063400 0.000000 0.000000 0.000000 0.000000 0.000000 0.000000 2.021920 -5.690310 -0.063351 -70.104897 9.959680 15.983900 -22.552299 -9.319900 0.134635 5.975360 -0.119941 0.169518 -2.021920 5.690310 -0.063351 70.100700 -9.978770 15.991600 22.515600 9.303740 0.147736 -5.969490 0.173112 0.175734 -7.544930 3.982110 0.126592 15.856000 -3.300730 -0.855127 -8.588080 1.056590 -0.877759 -7.531940 -4.331990 0.100592 15.780100 3.271440 0.612621 -8.616930 -1.581440 0.945399 
-0.174850 30.192017 -0.196121 0.000000 0.000000 181.585403 0.013139 0.029254 -0.026379 0.109584 0.166321 -0.226038 0.000000 0.000000 0.000000 -5.577068 0.192008 0.916948 0.127226 -0.003262 1.607344 0.000000 0.000000 0.000000 2.618764 -6.198684 0.234584 -72.326904 4.487629 14.637681 -20.770660 -11.631472 0.312654 6.906209 0.739980 -0.069046 -1.848564 5.277017 -0.075041 73.017151 -10.507711 15.600958 22.473385 10.674848 0.146973 -6.204142 -0.138429 0.185433 -10.869620 4.268944 -0.026450 20.706659 -3.354432 -1.324206 -4.537307 -2.175166 -1.178709 -6.078375 -3.117834 0.188904 11.758445 3.045076 0.244473 -6.149508 -6.174205 0.862394 
-0.372960 30.322994 -0.668929 0.000000 0.000000 183.915878 0.011764 0.061245 -0.071139 0.224559 0.350604 -0.522612 0.000000 0.000000 0.000000 -5.422056 0.459765 2.265723 0.301030 -0.005082 3.819202 0.000000 0.000000 0.000000 3.296165 -6.775023 0.641282 -72.568909 -2.563468 13.430332 -18.249971 -13.804935 0.542353 8.090797 1.742038 -0.372766 -1.596607 4.710079 -0.093578 74.080490 -10.983892 15.424924 22.065788 11.732676 0.157569 -6.517837 -0.595429 0.197043 -14.927913 5.083492 -0.172380 26.996161 -3.443553 -1.937591 0.792056 -5.346175 -1.596544 -4.287246 -2.117390 0.265902 6.834335 2.769069 -0.204475 -3.682085 -10.766970 0.779388 
-0.507242 30.466448 -1.124930 0.000000 0.000000 186.937469 -0.043733 0.079496 -0.146322 0.281379 0.487946 -0.852900 0.000000 0.000000 0.000000 -5.227914 0.792035 3.910370 0.512587 -0.014246 6.511101 0.000000 0.000000 0.000000 3.799003 -7.197026 1.112307 -71.715935 -9.509460 12.386967 -15.723197 -15.635306 0.752552 9.302226 2.560649 -0.696740 -1.261305 4.034288 -0.121371 73.807816 -11.383177 15.398774 21.378860 12.441295 0.176737 -6.873133 -1.147020 0.205654 -18.719608 6.084012 -0.254242 33.628109 -3.582428 -2.600008 6.445423 -6.462426 -2.084109 -2.568477 -1.401348 0.323025 2.284459 2.513865 -0.615343 -1.214663 -15.359735 0.696383 
-0.490606 30.599613 -1.442574 0.000000 0.000000 190.597580 -0.192958 0.067526 -0.263971 0.216498 0.513445 -1.180080 0.000000 0.000000 0.000000 -4.997297 1.177579 5.778336 0.753074 -0.039540 9.558570 0.000000 0.000000 0.000000 3.872160 -7.242390 1.603220 -70.653000 -14.666200 11.532700 -13.923300 -16.917601 0.872073 10.313600 2.870230 -0.996065 -0.837913 3.294437 -0.160831 72.716225 -11.681430 15.457786 20.498652 12.764774 0.201691 -7.232589 -1.742331 0.206357 -21.244499 6.928760 -0.215079 39.506100 -3.785390 -3.216180 11.468200 -3.529910 -2.594250 -1.331990 -1.040400 0.351713 -0.614498 2.349910 -0.869250 1.252760 -19.952499 0.613378 
-0.259884 30.693428 -1.563183 0.000000 0.000000 194.845108 -0.422813 0.027629 -0.421137 0.020293 0.399866 -1.461008 0.000000 0.000000 0.000000 -4.732858 1.605158 7.797062 1.013664 -0.089750 12.837133 0.000000 0.000000 0.000000 3.348250 -6.752568 2.078244 -70.097435 -16.734758 10.882403 -13.403298 -17.510090 0.848743 10.949211 2.430135 -1.233069 -0.321687 2.535317 -0.214364 71.322815 -11.854515 15.537234 19.511213 12.667185 0.229644 -7.558762 -2.330494 0.194244 -21.638531 7.242004 -0.033445 43.275295 -4.040197 -3.657811 14.720049 4.535865 -2.957544 -0.787145 -1.089582 0.342979 -1.258234 2.306542 -0.914810 1.455630 -24.554350 1.723914 
0.152419 30.693636 -1.679551 0.000000 0.000000 199.630341 -0.509384 0.037187 -0.554899 -0.101169 0.270636 -1.627260 0.000000 0.000000 0.000000 -4.437253 2.063534 9.893996 1.285535 -0.173662 16.222321 0.000000 0.000000 0.000000 2.410816 -5.824029 2.536245 -70.095764 -15.957113 10.409972 -13.996423 -17.524069 0.706409 11.250295 1.339471 -1.398998 0.292118 1.801720 -0.284381 70.144699 -11.878300 15.572400 18.502600 12.112600 0.257808 -7.814210 -2.860640 0.164405 -19.582214 6.512051 0.170056 42.547085 -4.228295 -3.664513 14.317603 15.181274 -2.515488 -0.341050 -1.541300 0.286137 -1.731990 2.248660 -0.970618 1.658500 -29.156200 2.834450 
0.689876 30.539682 -2.047342 0.000000 0.000000 204.904968 -0.275236 0.161077 -0.604054 0.020841 0.251665 -1.633494 0.000000 0.000000 0.000000 -4.113134 2.541471 11.996585 1.559860 -0.300063 19.589659 0.000000 0.000000 0.000000 1.331134 -4.617001 2.984746 -70.526825 -12.960460 10.079059 -15.355959 -17.134085 0.487924 11.304090 -0.217721 -1.492327 0.990592 1.127734 -0.368796 69.572556 -11.750851 15.518188 17.563105 11.103773 0.281952 -7.970832 -3.316263 0.114489 -14.892200 4.193210 0.239312 34.674400 -4.204550 -2.942880 8.191740 24.943199 -0.487309 -1.413490 -2.670970 0.166808 -0.127121 2.460090 -0.882258 2.965200 -32.438099 3.481690 
1.255592 30.221735 -2.788324 0.000000 0.000000 210.622131 0.060342 0.339076 -0.574232 0.190003 0.328117 -1.551976 0.000000 0.000000 0.000000 -3.763159 3.027729 14.032271 1.827817 -0.477737 22.814674 0.000000 0.000000 0.000000 0.380483 -3.291709 3.431276 -71.269463 -8.372000 9.853317 -17.135195 -16.514688 0.236141 11.187017 -2.057399 -1.511530 1.690210 0.504628 -0.447544 69.491478 -11.559057 15.408009 16.800007 9.798196 0.292062 -8.037887 -3.818309 0.052378 -8.391140 0.524177 0.096788 20.088726 -3.918195 -1.517480 -3.228012 30.716988 3.066048 -9.634840 -5.300720 0.127942 14.655400 3.905560 0.450972 1.426090 -34.652100 5.821160 
1.590795 29.932840 -3.488677 0.000000 0.000000 216.736389 0.178877 0.479686 -0.487771 0.118736 0.449972 -1.484370 0.000000 0.000000 0.000000 -3.389980 3.511070 15.928500 2.080580 -0.715471 25.772900 0.000000 0.000000 0.000000 -0.169861 -2.008383 3.883358 -72.202507 -2.818933 9.696404 -18.987419 -15.840428 -0.006089 10.964624 -3.995519 -1.455083 2.289792 -0.087031 -0.496068 69.660164 -11.412010 15.294901 16.324831 8.392046 0.276679 -8.033971 -4.522085 -0.011489 -4.925670 -1.118860 -0.020732 11.535600 -3.695920 -0.684775 -9.517600 30.832001 4.716790 -17.146200 -8.094600 0.697857 26.851801 4.243060 1.709160 5.013480 -33.824799 14.438400 
